# xmcd
#
# Track frame offsets:
#	150
#	34665
#	56336
#	78095
#	97054
#	111958
#	144100
#	181220
#	220366
#	249893
#	280127
#
# Disc length: 3931 seconds
#
# Revision: 1
# Processed by: cddbd v1.5.2PL0 Copyright (c) Steve Scherf et al.
# Submitted via: audiograbber 1.83.01
#
DISCID=8d0f590b
DTITLE=Mirja Boes - Boese Tagebücher
DYEAR=2009
DGENRE=Hörbuch
TTITLE0=201_12
TTITLE1=202_13
TTITLE2=203_14
TTITLE3=204_15
TTITLE4=205_16
TTITLE5=206_17
TTITLE6=207_18
TTITLE7=208_19
TTITLE8=209_20
TTITLE9=210_21
TTITLE10=211_22
EXTD=Bearbeitete Lesefassung, bestehend aus 3 CDs.\nGelesen von Mirja Boes.\n
EXTT0=
EXTT1=
EXTT2=
EXTT3=
EXTT4=
EXTT5=
EXTT6=
EXTT7=
EXTT8=
EXTT9=
EXTT10=
PLAYORDER=
